<?xml version="1.0" encoding="utf-8"?>
<svg xmlns="http://www.w3.org/2000/svg" width="0.5in" height="0.5in" viewBox="0 0 25 25" color-interpolation-filters="sRGB" class="st3" preserveAspectRatio="xMidYMid slice">
  <style type="text/css">
	
		.st1 {fill:#45b0e1;stroke:none;stroke-width:6.375}
		.st2 {fill:#4ea72e;stroke:#265316;stroke-linecap:butt;stroke-width:0.25}
		.st3 {fill:none;fill-rule:evenodd;font-size:12px;overflow:visible;stroke-linecap:square;stroke-miterlimit:3}
	
	</style>
  <g transform="matrix(0.871405, 0, 0, 0.871405, -5.035327, -4.548702)" style="">
    <title>Page-1</title>
    <g id="group1-1" transform="translate(6.375,-22.4)">
      <title>Database</title>
      <g id="shape2-2">
        <title>Sheet.2</title>
        <path d="M9 47.47 C13.95 47.47 18 46.35 18 44.98 L18 49.97 C18 51.34 13.95 52.46 9 52.46 C4.05 52.46 0 51.34 0 49.97 L0 44.98 C0 46.35 4.05 47.47 9 47.47 ZM15.43 49.97 C15.81 49.97 16.07 49.72 16.07 49.34 C16.07 48.97 15.81 48.72 15.43 48.72 C15.04 48.72 14.79 48.97 14.79 49.34 C14.79 49.72 15.04 49.97 15.43 49.97 ZM9 41.24 C13.95 41.24 18 40.12 18 38.75 L18 43.73 C18 45.1 13.95 46.23 9 46.23 C4.05 46.23 0 45.1 0 43.73 L0 38.75 C0 40.12 4.05 41.24 9 41.24 ZM15.43 43.73 C15.81 43.73 16.07 43.48 16.07 43.11 C16.07 42.74 15.81 42.49 15.43 42.49 C15.04 42.49 14.79 42.74 14.79 43.11 C14.79 43.48 15.04 43.73 15.43 43.73 ZM9 35.01 C13.95 35.01 18 33.89 18 32.51 L18 37.5 C18 38.87 13.95 39.99 9 39.99 C4.05 39.99 0 38.87 0 37.5 L0 32.51 C0 33.89 4.05 35.01 9 35.01 ZM15.43 37.5 C15.81 37.5 16.07 37.25 16.07 36.88 C16.07 36.5 15.81 36.25 15.43 36.25 C15.04 36.25 14.79 36.5 14.79 36.88 C14.79 37.25 15.04 37.5 15.43 37.5 ZM18 31.27 A9 2.49307 0 1 1 -0 31.27 A9 2.49307 0 1 1 18 31.27 Z" class="st1"/>
      </g>
    </g>
    <g id="group37-4" transform="translate(15.8711,-19.7077)">
      <title>Sheet.37</title>
      <g id="shape38-5">
        <title>Sheet.38</title>
        <path d="M18 44.58 L11.56 39.18 L11.56 42.33 C1.69 42.42 0 52.46 0 52.46 C0 52.46 3.67 47.13 11.56 47.06 L11.56 49.98 L18 44.58 Z" class="st2"/>
      </g>
    </g>
  </g>
</svg>